<mxfile host="app.diagrams.net" agent="Mozilla/5.0 (Macintosh; Intel Mac OS X 10_15_7) AppleWebKit/605.1.15 (KHTML, like Gecko) Version/17.6 Safari/605.1.15" version="24.7.16">
  <diagram name="Page-1" id="oZ2NKzekWX5UzydH3rlz">
    <mxGraphModel dx="1434" dy="827" grid="1" gridSize="10" guides="1" tooltips="1" connect="1" arrows="1" fold="1" page="1" pageScale="1" pageWidth="1400" pageHeight="850" math="0" shadow="0">
      <root>
        <mxCell id="0" />
        <mxCell id="1" parent="0" />
        <mxCell id="wgoY-j7s7umH5Q6u0VK3-2" style="edgeStyle=orthogonalEdgeStyle;rounded=0;orthogonalLoop=1;jettySize=auto;html=1;exitX=0.5;exitY=1;exitDx=0;exitDy=0;" edge="1" parent="1" source="wgoY-j7s7umH5Q6u0VK3-1" target="wgoY-j7s7umH5Q6u0VK3-3">
          <mxGeometry relative="1" as="geometry">
            <mxPoint x="700" y="140" as="targetPoint" />
          </mxGeometry>
        </mxCell>
        <mxCell id="wgoY-j7s7umH5Q6u0VK3-1" value="&lt;font style=&quot;font-size: 24px;&quot;&gt;&lt;b&gt;Start&lt;/b&gt;&lt;/font&gt;" style="rounded=1;whiteSpace=wrap;html=1;" vertex="1" parent="1">
          <mxGeometry x="640" y="30" width="120" height="60" as="geometry" />
        </mxCell>
        <mxCell id="wgoY-j7s7umH5Q6u0VK3-4" style="edgeStyle=orthogonalEdgeStyle;rounded=0;orthogonalLoop=1;jettySize=auto;html=1;" edge="1" parent="1" target="wgoY-j7s7umH5Q6u0VK3-76">
          <mxGeometry relative="1" as="geometry">
            <mxPoint x="965" y="280" as="targetPoint" />
            <mxPoint x="760" y="185" as="sourcePoint" />
          </mxGeometry>
        </mxCell>
        <mxCell id="wgoY-j7s7umH5Q6u0VK3-10" value="&lt;font style=&quot;font-size: 24px;&quot;&gt;S&lt;/font&gt;" style="edgeLabel;html=1;align=center;verticalAlign=middle;resizable=0;points=[];" vertex="1" connectable="0" parent="wgoY-j7s7umH5Q6u0VK3-4">
          <mxGeometry x="-0.3667" relative="1" as="geometry">
            <mxPoint x="32" as="offset" />
          </mxGeometry>
        </mxCell>
        <mxCell id="wgoY-j7s7umH5Q6u0VK3-5" style="edgeStyle=orthogonalEdgeStyle;rounded=0;orthogonalLoop=1;jettySize=auto;html=1;" edge="1" parent="1" source="wgoY-j7s7umH5Q6u0VK3-3" target="wgoY-j7s7umH5Q6u0VK3-78">
          <mxGeometry relative="1" as="geometry">
            <mxPoint x="435" y="270" as="targetPoint" />
          </mxGeometry>
        </mxCell>
        <mxCell id="wgoY-j7s7umH5Q6u0VK3-9" value="&lt;font style=&quot;font-size: 24px;&quot;&gt;L&lt;/font&gt;" style="edgeLabel;html=1;align=center;verticalAlign=middle;resizable=0;points=[];" vertex="1" connectable="0" parent="wgoY-j7s7umH5Q6u0VK3-5">
          <mxGeometry x="-0.2978" y="2" relative="1" as="geometry">
            <mxPoint x="-18" y="-2" as="offset" />
          </mxGeometry>
        </mxCell>
        <mxCell id="wgoY-j7s7umH5Q6u0VK3-6" style="edgeStyle=orthogonalEdgeStyle;rounded=0;orthogonalLoop=1;jettySize=auto;html=1;" edge="1" parent="1" source="wgoY-j7s7umH5Q6u0VK3-3" target="wgoY-j7s7umH5Q6u0VK3-79">
          <mxGeometry relative="1" as="geometry">
            <mxPoint x="700" y="280" as="targetPoint" />
          </mxGeometry>
        </mxCell>
        <mxCell id="wgoY-j7s7umH5Q6u0VK3-11" value="&lt;font style=&quot;font-size: 24px;&quot;&gt;M&lt;/font&gt;" style="edgeLabel;html=1;align=center;verticalAlign=middle;resizable=0;points=[];" vertex="1" connectable="0" parent="wgoY-j7s7umH5Q6u0VK3-6">
          <mxGeometry x="-0.2728" y="-1" relative="1" as="geometry">
            <mxPoint x="1" as="offset" />
          </mxGeometry>
        </mxCell>
        <mxCell id="wgoY-j7s7umH5Q6u0VK3-3" value="&lt;font style=&quot;font-size: 24px;&quot;&gt;&lt;b&gt;Size&lt;/b&gt;&lt;/font&gt;" style="html=1;whiteSpace=wrap;aspect=fixed;shape=isoRectangle;" vertex="1" parent="1">
          <mxGeometry x="625" y="140" width="150" height="90" as="geometry" />
        </mxCell>
        <mxCell id="wgoY-j7s7umH5Q6u0VK3-33" style="edgeStyle=orthogonalEdgeStyle;rounded=0;orthogonalLoop=1;jettySize=auto;html=1;entryX=0.167;entryY=0.333;entryDx=0;entryDy=0;entryPerimeter=0;" edge="1" parent="1" target="wgoY-j7s7umH5Q6u0VK3-22">
          <mxGeometry relative="1" as="geometry">
            <mxPoint x="640" y="500" as="targetPoint" />
            <mxPoint x="435" y="360" as="sourcePoint" />
            <Array as="points">
              <mxPoint x="435" y="490" />
              <mxPoint x="511" y="490" />
              <mxPoint x="511" y="510" />
            </Array>
          </mxGeometry>
        </mxCell>
        <mxCell id="wgoY-j7s7umH5Q6u0VK3-23" value="" style="edgeStyle=orthogonalEdgeStyle;rounded=0;orthogonalLoop=1;jettySize=auto;html=1;" edge="1" parent="1" target="wgoY-j7s7umH5Q6u0VK3-22">
          <mxGeometry relative="1" as="geometry">
            <mxPoint x="700" y="370" as="sourcePoint" />
          </mxGeometry>
        </mxCell>
        <mxCell id="wgoY-j7s7umH5Q6u0VK3-43" value="" style="edgeStyle=orthogonalEdgeStyle;rounded=0;orthogonalLoop=1;jettySize=auto;html=1;" edge="1" parent="1" source="wgoY-j7s7umH5Q6u0VK3-22" target="wgoY-j7s7umH5Q6u0VK3-64">
          <mxGeometry relative="1" as="geometry">
            <mxPoint x="485" y="580" as="targetPoint" />
          </mxGeometry>
        </mxCell>
        <mxCell id="wgoY-j7s7umH5Q6u0VK3-63" value="&lt;font style=&quot;font-size: 24px;&quot;&gt;Y&lt;/font&gt;" style="edgeLabel;html=1;align=center;verticalAlign=middle;resizable=0;points=[];" vertex="1" connectable="0" parent="wgoY-j7s7umH5Q6u0VK3-43">
          <mxGeometry x="-0.2905" y="1" relative="1" as="geometry">
            <mxPoint as="offset" />
          </mxGeometry>
        </mxCell>
        <mxCell id="wgoY-j7s7umH5Q6u0VK3-45" value="" style="edgeStyle=orthogonalEdgeStyle;rounded=0;orthogonalLoop=1;jettySize=auto;html=1;" edge="1" parent="1" source="wgoY-j7s7umH5Q6u0VK3-22" target="wgoY-j7s7umH5Q6u0VK3-51">
          <mxGeometry relative="1" as="geometry">
            <mxPoint x="710" y="670" as="targetPoint" />
            <Array as="points">
              <mxPoint x="800" y="525" />
              <mxPoint x="800" y="610" />
              <mxPoint x="700" y="610" />
            </Array>
          </mxGeometry>
        </mxCell>
        <mxCell id="wgoY-j7s7umH5Q6u0VK3-62" value="&lt;font style=&quot;font-size: 24px;&quot;&gt;N&lt;/font&gt;" style="edgeLabel;html=1;align=center;verticalAlign=middle;resizable=0;points=[];" vertex="1" connectable="0" parent="wgoY-j7s7umH5Q6u0VK3-45">
          <mxGeometry x="-0.1091" y="-3" relative="1" as="geometry">
            <mxPoint x="15" y="-27" as="offset" />
          </mxGeometry>
        </mxCell>
        <mxCell id="wgoY-j7s7umH5Q6u0VK3-22" value="&lt;font style=&quot;font-size: 24px;&quot;&gt;Pep&lt;/font&gt;" style="html=1;whiteSpace=wrap;aspect=fixed;shape=isoRectangle;" vertex="1" parent="1">
          <mxGeometry x="625" y="480" width="150" height="90" as="geometry" />
        </mxCell>
        <mxCell id="wgoY-j7s7umH5Q6u0VK3-30" style="edgeStyle=orthogonalEdgeStyle;rounded=0;orthogonalLoop=1;jettySize=auto;html=1;entryX=0.807;entryY=0.267;entryDx=0;entryDy=0;entryPerimeter=0;" edge="1" parent="1" target="wgoY-j7s7umH5Q6u0VK3-22">
          <mxGeometry relative="1" as="geometry">
            <mxPoint x="965" y="370" as="sourcePoint" />
            <Array as="points">
              <mxPoint x="965" y="490" />
              <mxPoint x="775" y="490" />
              <mxPoint x="775" y="504" />
            </Array>
          </mxGeometry>
        </mxCell>
        <mxCell id="wgoY-j7s7umH5Q6u0VK3-71" style="edgeStyle=orthogonalEdgeStyle;rounded=0;orthogonalLoop=1;jettySize=auto;html=1;entryX=0.5;entryY=0;entryDx=0;entryDy=0;" edge="1" parent="1" source="wgoY-j7s7umH5Q6u0VK3-51" target="wgoY-j7s7umH5Q6u0VK3-82">
          <mxGeometry relative="1" as="geometry">
            <mxPoint x="950" y="920" as="targetPoint" />
            <Array as="points">
              <mxPoint x="850" y="725" />
              <mxPoint x="850" y="830" />
              <mxPoint x="745" y="830" />
            </Array>
          </mxGeometry>
        </mxCell>
        <mxCell id="wgoY-j7s7umH5Q6u0VK3-74" value="&lt;font style=&quot;font-size: 24px;&quot;&gt;N&lt;/font&gt;" style="edgeLabel;html=1;align=center;verticalAlign=middle;resizable=0;points=[];" vertex="1" connectable="0" parent="wgoY-j7s7umH5Q6u0VK3-71">
          <mxGeometry x="-0.2585" y="1" relative="1" as="geometry">
            <mxPoint as="offset" />
          </mxGeometry>
        </mxCell>
        <mxCell id="wgoY-j7s7umH5Q6u0VK3-72" style="edgeStyle=orthogonalEdgeStyle;rounded=0;orthogonalLoop=1;jettySize=auto;html=1;" edge="1" parent="1" source="wgoY-j7s7umH5Q6u0VK3-51" target="wgoY-j7s7umH5Q6u0VK3-80">
          <mxGeometry relative="1" as="geometry">
            <mxPoint x="430" y="830" as="targetPoint" />
          </mxGeometry>
        </mxCell>
        <mxCell id="wgoY-j7s7umH5Q6u0VK3-73" value="&lt;font style=&quot;font-size: 24px;&quot;&gt;Y&lt;/font&gt;" style="edgeLabel;html=1;align=center;verticalAlign=middle;resizable=0;points=[];" vertex="1" connectable="0" parent="wgoY-j7s7umH5Q6u0VK3-72">
          <mxGeometry x="-0.3589" y="5" relative="1" as="geometry">
            <mxPoint as="offset" />
          </mxGeometry>
        </mxCell>
        <mxCell id="wgoY-j7s7umH5Q6u0VK3-51" value="&lt;font style=&quot;font-size: 24px;&quot;&gt;Cheese&lt;/font&gt;" style="html=1;whiteSpace=wrap;aspect=fixed;shape=isoRectangle;" vertex="1" parent="1">
          <mxGeometry x="625" y="680" width="150" height="90" as="geometry" />
        </mxCell>
        <mxCell id="wgoY-j7s7umH5Q6u0VK3-69" style="edgeStyle=orthogonalEdgeStyle;rounded=0;orthogonalLoop=1;jettySize=auto;html=1;" edge="1" parent="1" source="wgoY-j7s7umH5Q6u0VK3-64" target="wgoY-j7s7umH5Q6u0VK3-51">
          <mxGeometry relative="1" as="geometry" />
        </mxCell>
        <mxCell id="wgoY-j7s7umH5Q6u0VK3-64" value="&lt;font style=&quot;font-size: 24px;&quot;&gt;+$3&lt;/font&gt;" style="rounded=1;whiteSpace=wrap;html=1;" vertex="1" parent="1">
          <mxGeometry x="375" y="580" width="120" height="60" as="geometry" />
        </mxCell>
        <mxCell id="wgoY-j7s7umH5Q6u0VK3-76" value="&lt;font style=&quot;font-size: 24px;&quot;&gt;+$15&lt;/font&gt;" style="rounded=1;whiteSpace=wrap;html=1;" vertex="1" parent="1">
          <mxGeometry x="905" y="310" width="120" height="60" as="geometry" />
        </mxCell>
        <mxCell id="wgoY-j7s7umH5Q6u0VK3-78" value="&lt;font style=&quot;font-size: 24px;&quot;&gt;+$25&lt;/font&gt;" style="rounded=1;whiteSpace=wrap;html=1;" vertex="1" parent="1">
          <mxGeometry x="375" y="310" width="120" height="60" as="geometry" />
        </mxCell>
        <mxCell id="wgoY-j7s7umH5Q6u0VK3-79" value="&lt;font style=&quot;font-size: 24px;&quot;&gt;+$20&lt;/font&gt;" style="rounded=1;whiteSpace=wrap;html=1;" vertex="1" parent="1">
          <mxGeometry x="640" y="310" width="120" height="60" as="geometry" />
        </mxCell>
        <mxCell id="wgoY-j7s7umH5Q6u0VK3-81" style="edgeStyle=orthogonalEdgeStyle;rounded=0;orthogonalLoop=1;jettySize=auto;html=1;" edge="1" parent="1" source="wgoY-j7s7umH5Q6u0VK3-80" target="wgoY-j7s7umH5Q6u0VK3-82">
          <mxGeometry relative="1" as="geometry">
            <mxPoint x="710" y="960" as="targetPoint" />
          </mxGeometry>
        </mxCell>
        <mxCell id="wgoY-j7s7umH5Q6u0VK3-80" value="&lt;font style=&quot;font-size: 24px;&quot;&gt;+$3&lt;/font&gt;" style="rounded=1;whiteSpace=wrap;html=1;" vertex="1" parent="1">
          <mxGeometry x="370" y="800" width="120" height="60" as="geometry" />
        </mxCell>
        <mxCell id="wgoY-j7s7umH5Q6u0VK3-82" value="&lt;font style=&quot;font-size: 24px;&quot;&gt;The total cost of your pizza is $x&lt;/font&gt;" style="rounded=1;whiteSpace=wrap;html=1;" vertex="1" parent="1">
          <mxGeometry x="650" y="930" width="190" height="90" as="geometry" />
        </mxCell>
      </root>
    </mxGraphModel>
  </diagram>
</mxfile>
